<?xml version="1.0" encoding="UTF-8" standalone="no"?>
<!-- Generator: Adobe Illustrator 28.0.0, SVG Export Plug-In . SVG Version: 6.00 Build 0)  -->

<svg
   version="1.1"
   id="Layer_1"
   x="0px"
   y="0px"
   viewBox="0 0 277.668 277.67001"
   xml:space="preserve"
   sodipodi:docname="Deezer symbol 2023.svg"
   width="277.668"
   height="277.67001"
   inkscape:version="1.3 (0e150ed6c4, 2023-07-21)"
   xmlns:inkscape="http://www.inkscape.org/namespaces/inkscape"
   xmlns:sodipodi="http://sodipodi.sourceforge.net/DTD/sodipodi-0.dtd"
   xmlns="http://www.w3.org/2000/svg"
   xmlns:svg="http://www.w3.org/2000/svg"><defs
   id="defs2" /><sodipodi:namedview
   id="namedview2"
   pagecolor="#505050"
   bordercolor="#eeeeee"
   borderopacity="1"
   inkscape:showpageshadow="0"
   inkscape:pageopacity="0"
   inkscape:pagecheckerboard="0"
   inkscape:deskcolor="#d1d1d1"
   inkscape:zoom="0.71235778"
   inkscape:cx="342.52451"
   inkscape:cy="138.27321"
   inkscape:window-width="1920"
   inkscape:window-height="991"
   inkscape:window-x="-9"
   inkscape:window-y="-9"
   inkscape:window-maximized="1"
   inkscape:current-layer="Layer_1" />&#10;<style
   type="text/css"
   id="style1">&#10;	.st0{fill-rule:evenodd;clip-rule:evenodd;}&#10;	.st1{fill-rule:evenodd;clip-rule:evenodd;fill:#A238FF;}&#10;</style>&#10;&#10;<path
   class="st1"
   d="m 232.881,42.363 c 2.569,-14.89 6.339,-24.253 10.515,-24.271 h 0.008 c 7.787,0.027 14.099,32.499 14.099,72.59 0,40.092 -6.321,72.59 -14.116,72.59 -3.196,0 -6.145,-5.518 -8.519,-14.765 -3.752,33.85 -11.538,57.119 -20.552,57.119 -6.974,0 -13.233,-13.978 -17.435,-36.022 -2.869,41.924 -10.09,71.669 -18.53,71.669 -5.297,0 -10.126,-11.787 -13.701,-30.979 -4.299,39.617 -14.231,67.376 -25.813,67.376 -11.582,0 -21.532,-27.75 -25.813,-67.376 -3.549,19.192 -8.378,30.979 -13.701,30.979 -8.44,0 -15.643,-29.745 -18.53,-71.669 -4.202,22.044 -10.443,36.022 -17.435,36.022 -9.004,0 -16.8,-23.261 -20.551,-57.119 -2.357,9.274 -5.323,14.765 -8.519,14.765 -7.795,0 -14.116,-32.498 -14.116,-72.59 0,-40.091 6.321,-72.59 14.116,-72.59 4.184,0 7.928,9.39 10.523,24.271 C 48.968,16.688 55.721,0 63.357,0 c 9.066,0 16.923,23.6 20.64,57.87 3.637,-24.942 9.155,-40.842 15.334,-40.842 8.66,0 16.022,31.273 18.75,74.897 5.129,-22.366 12.554,-36.398 20.773,-36.398 8.218,0 15.643,14.04 20.763,36.398 2.737,-43.624 10.09,-74.897 18.751,-74.897 6.17,0 11.679,15.901 15.334,40.842 C 197.411,23.6 205.268,0 214.334,0 c 7.61,0 14.389,16.697 18.547,42.363 z M 0,83.542 C 0,65.62 3.584,51.088 8.007,51.088 c 4.423,0 8.007,14.532 8.007,32.454 0,17.921 -3.584,32.454 -8.007,32.454 C 3.584,115.996 0,101.463 0,83.542 Z m 261.654,0 c 0,-17.922 3.584,-32.454 8.007,-32.454 4.422,0 8.007,14.532 8.007,32.454 0,17.921 -3.585,32.454 -8.007,32.454 -4.423,0 -8.007,-14.533 -8.007,-32.454 z"
   id="path2" />&#10;</svg>
